<svg width="449" height="241" viewBox="0 0 449 241" fill="none" xmlns="http://www.w3.org/2000/svg" opacity="0.2">
<path d="M-255.033 234.591C-193.551 126.233 -95.3502 81.6969 -1.78431 80.9257C91.785 80.1544 183.428 117.418 274.953 147.314C366.477 177.207 461.617 199.878 553.145 170.019C652.023 137.762 739.904 46.2566 839.446 19.2391C1044.06 -36.2944 1245.04 189.439 1451.46 152.943" stroke="white" stroke-width="0.62" stroke-miterlimit="10"/>
<path d="M1445.33 146.347C1296.46 178.181 1148.53 73.4465 1000.42 31.9918C945.193 16.5329 889.957 9.95019 834.477 23.1697C750.19 43.0024 673.914 106.742 592.285 145.126C577.348 152.145 562.243 158.318 546.89 163.199C455.382 192.348 360.543 173.009 269.178 146.668C177.697 120.391 86.1188 86.9637 -7.40645 87.7891C-27.6647 87.9684 -48.1397 89.9946 -68.4251 94.0403C-142.22 108.647 -213.337 149.506 -263.049 231.354" stroke="#F5FBFF" stroke-width="0.7" stroke-miterlimit="10"/>
<path d="M1439.19 139.75C1291.78 176.841 1143.35 79.866 995.189 38.6142C939.993 23.2433 884.889 15.9063 829.507 27.1063C745.132 44.1652 668.348 102.486 586.269 138.995C571.237 145.673 556.054 151.616 540.64 156.386C449.153 184.824 354.615 168.817 263.409 146.028C171.972 123.371 80.458 93.779 -13.0233 94.6551C-33.312 94.848 -53.8107 96.6881 -74.14 100.318C-148.338 113.355 -219.831 149.357 -271.062 228.122" stroke="#EAF8FF" stroke-width="0.78" stroke-miterlimit="10"/>
<path d="M1433.06 133.15C1287.11 175.498 1138.18 86.2797 989.966 45.2308C934.797 29.9479 879.801 21.7753 824.538 31.0337C740.038 45.1902 662.783 98.2172 580.25 132.852C565.128 139.185 549.863 144.898 534.385 149.56C442.921 177.284 348.685 164.612 257.634 145.375C166.242 126.337 74.7918 100.582 -18.6488 101.512C-38.968 101.715 -59.4904 103.372 -79.8604 106.586C-154.461 118.057 -226.327 149.198 -279.078 224.878" stroke="#E0F4FF" stroke-width="0.86" stroke-miterlimit="10"/>
<path d="M1426.92 126.554C1282.43 174.159 1133.01 92.6971 984.738 51.8512C929.596 36.6562 874.702 27.6413 819.564 34.9682C734.932 46.2156 657.213 93.9588 574.23 126.72C559.016 132.711 543.673 138.194 528.128 142.747C436.684 169.761 342.749 160.422 251.858 144.736C160.509 129.315 69.1237 107.398 -24.2729 108.379C-44.6226 108.596 -65.1652 110.118 -85.5793 112.865C-160.559 122.959 -232.821 149.049 -287.096 221.648" stroke="#D6F0FF" stroke-width="0.94" stroke-miterlimit="10"/>
<path d="M1420.79 119.958C1277.75 172.819 1127.84 99.1175 979.518 58.4712C924.404 43.3608 869.608 33.4969 814.598 38.899C729.824 47.2238 651.655 89.6934 568.218 120.581C552.913 126.226 537.489 131.48 521.882 135.925C430.459 162.225 336.853 156.021 246.093 144.084C154.816 132.078 63.4674 114.201 -29.8852 115.233C-50.2654 115.459 -70.8318 116.806 -91.2898 119.129C-166.673 127.691 -239.31 148.887 -295.102 218.404" stroke="#CBECFF" stroke-width="1.02" stroke-miterlimit="10"/>
<path d="M1414.66 113.362C1273.08 171.48 1122.67 105.534 974.292 65.0944C919.204 50.0719 864.5 39.3522 809.629 42.8363C724.706 48.2283 646.09 85.4378 562.199 114.451C546.799 119.755 531.297 124.778 515.626 129.112C424.224 154.702 330.915 151.799 240.315 143.444C149.078 135.028 57.7973 121.017 -35.5113 122.103C-55.9186 122.343 -76.512 123.51 -97.0107 125.411C-172.796 132.437 -245.806 148.741 -303.121 215.174" stroke="#C1E9FF" stroke-width="1.11" stroke-miterlimit="10"/>
<path d="M1408.52 106.762C1268.4 170.137 1117.5 111.951 969.067 71.7106C914.007 56.776 859.393 45.1904 804.658 46.7633C719.583 49.2124 640.523 81.172 556.183 108.308C540.691 113.27 525.111 118.06 509.376 122.288C417.994 147.165 324.976 147.574 234.545 142.794C143.342 137.974 52.1326 127.823 -41.132 128.959C-61.5697 129.209 -82.1902 130.201 -102.73 131.679C-178.925 137.162 -252.3 148.582 -311.139 211.933" stroke="#B7E5FF" stroke-width="1.19" stroke-miterlimit="10"/>
<path d="M1402.39 100.166C1263.72 168.797 1112.32 118.368 963.843 78.3308C908.81 63.4842 854.281 51.0224 799.688 50.6976C714.453 50.1869 634.957 76.9101 550.163 102.172C534.58 106.789 518.919 111.353 503.119 115.469C411.761 139.635 319.034 143.359 228.769 142.148C137.6 140.927 46.465 134.632 -46.7556 135.823C-67.2238 136.087 -87.8714 136.895 -108.448 137.954C-185.05 141.888 -258.797 148.43 -319.152 208.699" stroke="#ACE1FF" stroke-width="1.27" stroke-miterlimit="10"/>
<path d="M1396.26 93.5698C1259.04 167.458 1107.15 124.785 958.617 84.9541C903.611 70.1921 849.167 56.8508 794.716 54.6317C709.322 51.1509 629.393 72.6513 544.145 96.0392C528.47 100.315 512.728 104.648 496.868 108.653C405.529 132.105 313.094 139.151 222.998 141.506C131.863 143.887 40.8023 141.445 -52.3744 142.686C-72.873 142.964 -93.5477 143.59 -114.165 144.229C-191.176 146.614 -265.289 148.278 -327.168 205.462" stroke="#A2DDFF" stroke-width="1.35" stroke-miterlimit="10"/>
<path d="M1390.12 86.9739C1254.37 166.119 1101.98 131.206 953.395 91.5744C898.416 76.9003 844.057 62.6694 789.751 58.5662C704.195 52.1019 623.833 68.3895 538.131 89.9033C522.365 93.834 506.535 97.9068 490.617 101.834C399.255 124.393 307.151 134.944 217.228 140.86C126.123 146.851 35.1405 148.255 -57.9921 149.547C-78.5178 149.834 -99.2196 150.277 -119.877 150.501C-197.298 151.326 -271.777 148.123 -335.176 202.225" stroke="#98DAFF" stroke-width="1.43" stroke-miterlimit="10"/>
<path d="M1383.99 80.374C1249.69 164.775 1096.81 137.619 948.168 98.1905C893.216 83.6044 838.941 68.4703 784.778 62.4931C699.06 53.0351 618.264 64.1235 532.112 83.7634C516.251 87.3524 500.346 91.1918 484.361 95.0142C393.019 116.856 301.207 130.745 211.453 140.21C120.382 149.817 29.4733 155.06 -63.6186 156.407C-84.1748 156.708 -104.904 156.965 -125.602 156.772C-203.433 156.034 -278.281 147.967 -343.199 198.988" stroke="#8DD6FF" stroke-width="1.51" stroke-miterlimit="10"/>
<path d="M1377.85 73.7776C1245.01 163.436 1091.64 144.039 942.945 104.81C888.02 90.3122 833.833 74.2715 779.809 66.4271C693.931 53.9585 612.698 59.8613 526.096 77.6271C510.144 80.8711 494.158 84.4804 478.111 88.1946C386.793 109.326 295.269 126.547 205.681 139.564C114.64 152.79 23.8097 161.866 -69.2383 163.267C-89.825 163.578 -110.581 163.652 -131.317 163.04C-209.557 160.736 -284.77 147.804 -351.209 195.744" stroke="#83D2FF" stroke-width="1.59" stroke-miterlimit="10"/>
<path d="M1371.72 67.1817C1240.33 162.096 1086.47 150.457 937.718 111.434C882.82 97.0238 828.718 80.0664 774.835 70.3614C688.802 54.8688 607.129 55.6028 520.073 71.4946C504.03 74.397 487.963 77.7763 471.852 81.3789C380.554 101.8 289.32 122.363 199.902 138.922C108.895 155.774 18.1391 168.679 -74.8649 170.134C-95.482 170.458 -116.265 170.343 -137.041 169.318C-215.691 165.442 -291.27 147.656 -359.232 192.514" stroke="#78CEFF" stroke-width="1.67" stroke-miterlimit="10"/>
<path d="M1365.59 60.5855C1235.66 160.757 1081.3 156.874 932.498 118.054C877.628 103.728 823.617 85.8474 769.87 74.2956C683.681 55.7686 601.571 51.3441 514.062 65.3585C497.927 67.9192 481.789 71.0989 465.607 74.5628C374.373 94.4563 283.387 118.182 194.137 138.279C103.168 158.765 12.4832 175.492 -80.4767 176.997C-101.121 177.335 -121.934 177.031 -142.748 175.593C-221.804 170.137 -297.756 147.504 -367.234 189.28" stroke="#6ECBFF" stroke-width="1.75" stroke-miterlimit="10"/>
<path d="M1359.46 53.986C1230.98 159.414 1076.13 163.291 927.275 124.671C872.432 110.433 818.512 91.6218 764.904 78.2229C678.57 56.6482 596.01 47.0752 508.047 59.2156C491.817 61.4313 475.601 64.3844 459.354 67.7366C368.141 86.9198 277.453 113.995 188.366 137.626C97.4338 161.748 6.81995 182.295 -86.0994 183.854C-106.774 184.202 -127.611 183.709 -148.469 181.862C-227.934 174.822 -304.252 147.345 -375.254 186.036" stroke="#64C7FF" stroke-width="1.83" stroke-miterlimit="10"/>
<path d="M1353.32 47.3896C1226.3 158.074 1070.95 169.707 922.048 131.29C867.231 117.141 813.41 97.3925 759.931 82.1569C673.454 57.5208 590.44 42.8163 502.027 53.0827C485.706 54.9567 469.408 57.6764 453.101 60.9204C361.908 79.3898 271.518 109.82 182.593 136.983C91.7018 164.745 1.15568 189.107 -91.7196 190.717C-112.425 191.079 -133.289 190.393 -154.184 188.136C-234.056 179.507 -310.742 147.192 -383.268 182.802" stroke="#59C3FF" stroke-width="1.91" stroke-miterlimit="10"/>
<path d="M1347.19 40.793C1221.63 156.734 1065.78 176.127 916.824 137.913C862.034 123.851 808.315 103.156 754.961 86.0905C668.348 58.3863 584.874 38.5536 496.007 46.9461C479.595 48.475 463.22 50.9681 446.844 54.1038C355.672 71.8629 265.583 105.653 176.817 136.337C85.97 167.742 -4.51184 195.916 -97.3431 197.577C-118.079 197.949 -138.967 197.073 -159.902 194.407C-240.177 184.185 -317.239 147.036 -391.281 179.564" stroke="#4FBFFF" stroke-width="1.99" stroke-miterlimit="10"/>
<path d="M1341.05 34.1973C1216.95 155.395 1060.61 182.545 911.596 144.534C856.834 130.556 803.219 108.914 749.987 90.0251C663.246 59.2426 579.308 34.2954 489.987 40.8138C473.484 42.0011 457.027 44.2607 440.588 47.2882C349.439 64.3336 259.651 101.489 171.038 135.695C80.2379 170.749 -10.183 202.729 -102.974 204.444C-123.74 204.83 -144.655 203.758 -165.631 200.686C-246.312 188.867 -323.743 146.888 -399.309 176.331" stroke="#45BCFF" stroke-width="2.08" stroke-miterlimit="10"/>
<path d="M1334.92 27.5977C1212.28 154.053 1055.44 188.962 906.377 151.15C851.642 137.261 798.139 114.665 745.025 93.9524C658.166 60.0816 573.75 30.0264 483.976 34.6708C467.381 35.5131 450.843 37.5461 434.343 40.462C343.214 56.797 253.795 97.4636 165.274 135.042C74.5888 173.899 -15.8388 209.532 -108.585 211.298C-129.379 211.697 -150.321 210.428 -171.337 206.951C-252.418 193.528 -330.225 146.726 -407.311 173.087" stroke="#3AB8FF" stroke-width="2.16" stroke-miterlimit="10"/>
<path d="M1323.12 21C1201.93 152.712 1044.6 195.377 895.48 157.772C840.772 143.971 787.384 120.417 734.382 97.8884C647.415 60.9258 562.512 25.7696 472.287 28.54C455.597 29.0406 438.985 30.8402 422.417 33.6512C331.309 49.2759 242.195 93.2744 153.829 134.404C63.1879 176.877 -27.1755 216.35 -119.878 218.17C-140.702 218.579 -161.661 217.081 -182.728 213.235C-264.181 198.063 -342.394 146.582 -421 169.862" stroke="#30B4FF" stroke-width="2.24" stroke-miterlimit="10"/>
<path d="M1322.65 14.4053C1202.92 151.374 1045.1 201.796 895.925 164.393C841.244 150.68 787.978 126.162 735.081 101.824C648.012 61.7595 562.615 21.5089 471.94 22.4053C455.159 22.5643 438.465 24.1339 421.836 26.8333C330.748 41.7441 241.935 89.078 153.729 133.76C63.1318 179.852 -27.1673 223.161 -119.826 225.031C-140.68 225.454 -161.663 223.77 -182.771 219.508C-264.627 202.77 -343.212 146.428 -423.338 166.623" stroke="#0AB6B6" stroke-width="2.32" stroke-miterlimit="10"/>
<path d="M1316.52 7.80859C1198.24 150.034 1039.92 208.216 890.701 171.013C836.047 157.387 782.941 131.841 730.111 105.754C643.005 62.4761 557.053 17.2463 465.921 16.2653C449.048 16.0793 432.273 17.4188 415.58 20.0099C324.512 34.2104 236.001 84.8763 147.953 133.11C57.4002 182.822 -32.8345 229.966 -125.452 231.888C-146.337 232.321 -167.347 230.453 -188.496 225.775C-270.754 207.472 -349.712 146.269 -431.361 163.382" stroke="#0AB6B6" stroke-width="2.4" stroke-miterlimit="10"/>
<path d="M1310.39 1.20898C1193.57 148.691 1034.75 214.629 885.478 177.629C740.417 141.675 606.811 14.7059 459.905 10.1257C234.403 3.0999 28.6277 285.611 -194.21 232.047C-276.872 212.177 -356.205 146.116 -439.371 160.148" stroke="#0AB6B6" stroke-width="2.48" stroke-miterlimit="10"/>
</svg>
