<svg width="26" height="34" viewBox="0 0 26 34" fill="none" xmlns="http://www.w3.org/2000/svg">
<path d="M0.000599389 3.26197C0.000599389 2.41603 0.169065 1.73365 0.503445 1.21484C0.837824 0.696027 1.4198 0.435343 2.24681 0.435343C2.93344 0.435343 3.46436 0.683248 3.84213 1.17395C4.21991 1.6672 4.55684 2.29335 4.85803 3.04985C5.96583 2.15023 7.19358 1.44485 8.53876 0.933708C9.88649 0.422564 11.3159 0.166992 12.8295 0.166992C14.5703 0.166992 16.2014 0.499236 17.7227 1.16117C19.2466 1.8231 20.5764 2.72527 21.7097 3.86768C22.8456 5.01264 23.7415 6.34672 24.4026 7.87249C25.0612 9.3957 25.3905 11.0288 25.3905 12.7718C25.3905 14.5148 25.0612 16.13 24.4026 17.6635C23.7441 19.1969 22.8456 20.5361 21.7097 21.681C20.5739 22.826 19.244 23.7282 17.7227 24.3876C16.2014 25.0495 14.5703 25.3792 12.8295 25.3792C11.5073 25.3792 10.2489 25.1849 9.05181 24.799C7.85468 24.4106 6.74689 23.8636 5.72589 23.1583V31.0605C5.72589 31.8733 5.47064 32.5633 4.96013 33.1358C4.44963 33.7083 3.77322 33.9945 2.93089 33.9945C2.52504 33.9945 2.14216 33.9153 1.78225 33.7543C1.4198 33.5958 1.10839 33.3862 0.845482 33.1205C0.582573 32.8572 0.375819 32.5505 0.222668 32.1978C0.0720698 31.8451 -0.00195312 31.4669 -0.00195312 31.0605V3.26197H0.000599389ZM5.96838 12.7744C5.96838 13.7098 6.14705 14.594 6.50696 15.4349C6.86941 16.2706 7.36205 17.0015 7.98742 17.6277C8.61278 18.2538 9.3377 18.7471 10.1647 19.11C10.9917 19.4703 11.88 19.6492 12.8321 19.6492C13.7842 19.6492 14.6673 19.4703 15.4969 19.11C16.3239 18.7496 17.0463 18.2538 17.664 17.6277C18.2792 17.0015 18.7641 16.2731 19.1164 15.4349C19.4686 14.5966 19.6422 13.7098 19.6422 12.7744C19.6422 11.839 19.4661 10.9317 19.1164 10.096C18.7641 9.25769 18.2817 8.53187 17.664 7.91594C17.0463 7.30001 16.3239 6.80931 15.4969 6.45151C14.6699 6.09115 13.7816 5.90714 12.8321 5.90714C11.8826 5.90714 10.9892 6.0886 10.1647 6.45151C9.3377 6.81187 8.61023 7.30001 7.98742 7.91594C7.36205 8.53187 6.86941 9.25769 6.50696 10.096C6.14705 10.9317 5.96838 11.8262 5.96838 12.7744V12.7744Z" fill="#8F24B2"/>
</svg>
