<svg width="17" height="24" viewBox="0 0 17 24" fill="none" xmlns="http://www.w3.org/2000/svg">
<path d="M0 19.0883V24H17V19.0883C16.9983 17.3075 16.4892 15.5678 15.5378 14.0921C14.5863 12.6167 13.2362 11.4727 11.6604 10.807C13.0022 9.85526 13.8887 8.34458 14.0939 6.66001C14.2994 4.97544 13.8034 3.2797 12.7327 2.00507C11.6623 0.730431 10.1203 0 8.50005 0C6.87979 0 5.33785 0.730431 4.26737 2.00507C3.1967 3.2797 2.70072 4.97544 2.90616 6.66001C3.1114 8.34458 3.9979 9.85526 5.33974 10.807C3.76395 11.4727 2.41373 12.6167 1.46225 14.0921C0.510915 15.5678 0.00179997 17.3075 9.72451e-05 19.0883H0ZM4.4951 5.92382C4.4951 4.81052 4.91698 3.74282 5.66798 2.95564C6.41917 2.1684 7.43779 1.72603 8.4999 1.72603C9.56201 1.72603 10.5806 2.16844 11.3318 2.95564C12.0829 3.74287 12.5047 4.81052 12.5047 5.92382C12.5047 7.03711 12.0828 8.10496 11.3318 8.8922C10.5806 9.67944 9.56201 10.1216 8.4999 10.1216C7.43779 10.1216 6.41917 9.67939 5.66798 8.8922C4.91693 8.10496 4.4951 7.03711 4.4951 5.92382ZM8.4999 11.8921C10.3186 11.8995 12.0606 12.6602 13.3466 14.0081C14.6326 15.3559 15.3581 17.1821 15.3653 19.0882V22.2866H1.63457V19.0882C1.64179 17.1821 2.36732 15.3559 3.65332 14.0081C4.93931 12.6602 6.68134 11.8994 8.5 11.8921H8.4999Z" fill="white"/>
</svg>
