<svg width="27" height="27" viewBox="0 0 27 27" fill="none" xmlns="http://www.w3.org/2000/svg">
<path d="M6.62504 1C5.76467 1 5.06255 1.70234 5.06255 2.5625V5.06255H2.5625C1.70234 5.06255 1 5.76489 1 6.62504V24.4375C1 25.2977 1.70234 26 2.5625 26H20.375C21.2351 26 21.9375 25.2977 21.9375 24.4375V21.9375H24.4375C25.2977 21.9375 26 21.2351 26 20.375V2.5625C26 1.70234 25.2977 1 24.4375 1H6.62504ZM6.62504 1.62494H24.4375C24.9622 1.62494 25.3751 2.0378 25.3751 2.5625V20.375C25.3751 20.8999 24.9622 21.3125 24.4375 21.3125H6.62504C6.10014 21.3125 5.68749 20.8999 5.68749 20.375V2.5625C5.68749 2.03782 6.10013 1.62494 6.62504 1.62494ZM2.5625 5.68749H5.06255V20.375C5.06255 21.2351 5.76467 21.9375 6.62504 21.9375H21.3125V24.4375C21.3125 24.9622 20.8999 25.3751 20.375 25.3751H2.5625C2.0376 25.3751 1.62494 24.9622 1.62494 24.4375V6.62504C1.62494 6.10014 2.03758 5.68749 2.5625 5.68749ZM15.4922 6.14656C15.3313 6.16662 15.2125 6.30656 15.2188 6.46874V11.1562H10.5313C10.5117 11.1545 10.4921 11.1545 10.4727 11.1562C10.3 11.1724 10.1734 11.3254 10.1895 11.498C10.2057 11.6707 10.3587 11.7973 10.5313 11.7812H15.2188V16.4687C15.2175 16.5524 15.25 16.633 15.3086 16.6925C15.3675 16.752 15.4477 16.7856 15.5312 16.7856C15.6149 16.7856 15.6951 16.752 15.7537 16.6925C15.8126 16.633 15.8449 16.5524 15.8438 16.4687V11.7812H20.5313C20.615 11.7825 20.6956 11.75 20.7551 11.6914C20.8146 11.6325 20.8482 11.5523 20.8482 11.4688C20.8482 11.3851 20.8146 11.3049 20.7551 11.2462C20.6956 11.1874 20.615 11.1551 20.5313 11.1562H15.8438V6.46873C15.8473 6.37696 15.8104 6.28824 15.7426 6.22612C15.6751 6.16399 15.5833 6.135 15.4922 6.14655L15.4922 6.14656Z" fill="white" stroke="white" stroke-width="0.7"/>
</svg>
