<svg width="22" height="23" viewBox="0 0 22 23" fill="none" xmlns="http://www.w3.org/2000/svg">
<path d="M10 3.43555H3C2.46957 3.43555 1.96086 3.64626 1.58579 4.02133C1.21071 4.39641 1 4.90511 1 5.43555V19.4355C1 19.966 1.21071 20.4747 1.58579 20.8498C1.96086 21.2248 2.46957 21.4355 3 21.4355H17C17.5304 21.4355 18.0391 21.2248 18.4142 20.8498C18.7893 20.4747 19 19.966 19 19.4355V12.4355" stroke="white" stroke-width="1.3" stroke-linecap="round" stroke-linejoin="round"/>
<path d="M17.5 1.93577C17.8978 1.53795 18.4374 1.31445 19 1.31445C19.5626 1.31445 20.1022 1.53795 20.5 1.93577C20.8978 2.3336 21.1213 2.87316 21.1213 3.43577C21.1213 3.99838 20.8978 4.53795 20.5 4.93577L11 14.4358L7 15.4358L8 11.4358L17.5 1.93577Z" stroke="white" stroke-width="1.3" stroke-linecap="round" stroke-linejoin="round"/>
</svg>
