<svg width="24" height="29" viewBox="0 0 24 29" fill="none" xmlns="http://www.w3.org/2000/svg">
<path d="M2.14892 4.11122V4.11123L2.15021 25.4446C2.15021 26.2388 2.80291 26.8796 3.60005 26.8796H20.3994C21.1966 26.8796 21.8493 26.2388 21.8493 25.4446V4.11122C21.8493 3.31702 21.1966 2.6762 20.3994 2.6762H3.59877C2.80162 2.6762 2.14892 3.31702 2.14892 4.11122ZM20.3999 28.7501H3.60005C1.74988 28.7501 0.25 27.2643 0.25 25.4446V4.11122C0.25 2.29145 1.74988 0.805664 3.60005 0.805664H20.3994C22.2496 0.805664 23.7495 2.29145 23.7495 4.11122L23.75 25.4446C23.75 27.2643 22.2501 28.7501 20.3999 28.7501Z" fill="white" stroke="#54016E" stroke-width="0.5"/>
<path d="M15.7498 9.44423C15.7498 11.2669 14.2669 12.7498 12.4442 12.7498C10.6215 12.7498 9.13867 11.2669 9.13867 9.44423C9.13867 7.62154 10.6215 6.13867 12.4442 6.13867C14.2669 6.13867 15.7498 7.62154 15.7498 9.44423ZM13.8792 9.44423C13.8792 8.65296 13.2361 8.00921 12.4442 8.00921C11.6523 8.00921 11.0092 8.65296 11.0092 9.44423C11.0092 10.2355 11.6523 10.8792 12.4442 10.8792C13.2361 10.8792 13.8792 10.2355 13.8792 9.44423Z" fill="white" stroke="#54016E" stroke-width="0.5"/>
<path d="M7.59984 18.6522L7.5193 18.9646H7.84192H17.0493H17.3717L17.2914 18.6523C16.7564 16.5728 14.809 15.0359 12.5041 15.0359C10.1027 15.0359 8.13691 16.5689 7.59984 18.6522ZM19.3062 19.8008V20.7052L18.3655 20.75H5.58398V19.8573C5.58398 16.1964 8.62799 13.25 12.386 13.25C16.2663 13.25 19.3062 16.2004 19.3062 19.8008Z" fill="white" stroke="#54016E" stroke-width="0.5"/>
<path d="M5.58398 23.917H19.3062V25.1948H5.58398V23.917Z" fill="white" stroke="#54016E" stroke-width="0.5"/>
</svg>
