<svg width="449" height="338" viewBox="0 0 449 338" fill="none" xmlns="http://www.w3.org/2000/svg">
<g opacity="0.1" clip-path="url(#clip0_191_3280)">
<path d="M-255.033 279.591C-193.551 171.233 -95.3502 126.697 -1.78431 125.926C91.785 125.154 183.428 162.418 274.953 192.314C366.477 222.207 461.617 244.878 553.145 215.019C652.023 182.762 739.904 91.2566 839.446 64.2391C1044.06 8.70555 1245.04 234.439 1451.46 197.943" stroke="white" stroke-width="0.62" stroke-miterlimit="10"/>
<path d="M1445.33 191.347C1296.46 223.181 1148.53 118.447 1000.42 76.9918C945.193 61.5329 889.957 54.9502 834.477 68.1697C750.19 88.0024 673.914 151.742 592.285 190.126C577.348 197.145 562.243 203.318 546.89 208.199C455.382 237.348 360.543 218.009 269.178 191.668C177.697 165.391 86.1188 131.964 -7.40645 132.789C-27.6647 132.968 -48.1397 134.995 -68.4251 139.04C-142.22 153.647 -213.337 194.506 -263.049 276.354" stroke="#F5FBFF" stroke-width="0.7" stroke-miterlimit="10"/>
<path d="M1439.19 184.75C1291.78 221.841 1143.35 124.866 995.189 83.6142C939.993 68.2433 884.889 60.9063 829.507 72.1063C745.132 89.1652 668.348 147.486 586.269 183.995C571.237 190.673 556.054 196.616 540.64 201.386C449.153 229.824 354.615 213.817 263.409 191.028C171.972 168.371 80.458 138.779 -13.0233 139.655C-33.312 139.848 -53.8107 141.688 -74.14 145.318C-148.338 158.355 -219.831 194.357 -271.062 273.122" stroke="#EAF8FF" stroke-width="0.78" stroke-miterlimit="10"/>
<path d="M1433.06 178.15C1287.11 220.498 1138.18 131.28 989.966 90.2308C934.797 74.9479 879.801 66.7753 824.538 76.0337C740.038 90.1902 662.783 143.217 580.25 177.852C565.128 184.185 549.863 189.898 534.385 194.56C442.921 222.284 348.685 209.612 257.634 190.375C166.242 171.337 74.7918 145.582 -18.6488 146.512C-38.968 146.715 -59.4904 148.372 -79.8604 151.586C-154.461 163.057 -226.327 194.198 -279.078 269.878" stroke="#E0F4FF" stroke-width="0.86" stroke-miterlimit="10"/>
<path d="M1426.92 171.554C1282.43 219.159 1133.01 137.697 984.738 96.8512C929.596 81.6562 874.702 72.6413 819.564 79.9682C734.932 91.2156 657.213 138.959 574.23 171.72C559.016 177.711 543.673 183.194 528.128 187.747C436.684 214.761 342.749 205.422 251.858 189.736C160.509 174.315 69.1237 152.398 -24.2729 153.379C-44.6226 153.596 -65.1652 155.118 -85.5793 157.865C-160.559 167.959 -232.821 194.049 -287.096 266.648" stroke="#D6F0FF" stroke-width="0.94" stroke-miterlimit="10"/>
<path d="M1420.79 164.958C1277.75 217.819 1127.84 144.118 979.518 103.471C924.404 88.3608 869.608 78.4969 814.598 83.899C729.824 92.2238 651.655 134.693 568.218 165.581C552.913 171.226 537.489 176.48 521.882 180.925C430.459 207.225 336.853 201.021 246.093 189.084C154.816 177.078 63.4674 159.201 -29.8852 160.233C-50.2654 160.459 -70.8318 161.806 -91.2898 164.129C-166.673 172.691 -239.31 193.887 -295.102 263.404" stroke="#CBECFF" stroke-width="1.02" stroke-miterlimit="10"/>
<path d="M1414.66 158.362C1273.08 216.48 1122.67 150.534 974.292 110.094C919.204 95.0719 864.5 84.3522 809.629 87.8363C724.706 93.2283 646.09 130.438 562.199 159.451C546.799 164.755 531.297 169.778 515.626 174.112C424.224 199.702 330.915 196.799 240.315 188.444C149.078 180.028 57.7973 166.017 -35.5113 167.103C-55.9186 167.343 -76.512 168.51 -97.0107 170.411C-172.796 177.437 -245.806 193.741 -303.121 260.174" stroke="#C1E9FF" stroke-width="1.11" stroke-miterlimit="10"/>
<path d="M1408.52 151.762C1268.4 215.137 1117.5 156.951 969.067 116.711C914.007 101.776 859.393 90.1904 804.658 91.7633C719.583 94.2124 640.523 126.172 556.183 153.308C540.691 158.27 525.111 163.06 509.376 167.288C417.994 192.165 324.976 192.574 234.545 187.794C143.342 182.974 52.1326 172.823 -41.132 173.959C-61.5697 174.209 -82.1902 175.201 -102.73 176.679C-178.925 182.162 -252.3 193.582 -311.139 256.933" stroke="#B7E5FF" stroke-width="1.19" stroke-miterlimit="10"/>
<path d="M1402.39 145.166C1263.72 213.797 1112.32 163.368 963.843 123.331C908.81 108.484 854.281 96.0224 799.688 95.6976C714.453 95.1869 634.957 121.91 550.163 147.172C534.58 151.789 518.919 156.353 503.119 160.469C411.761 184.635 319.034 188.359 228.769 187.148C137.6 185.927 46.465 179.632 -46.7556 180.823C-67.2238 181.087 -87.8714 181.895 -108.448 182.954C-185.05 186.888 -258.797 193.43 -319.152 253.699" stroke="#ACE1FF" stroke-width="1.27" stroke-miterlimit="10"/>
<path d="M1396.26 138.57C1259.04 212.458 1107.15 169.785 958.617 129.954C903.611 115.192 849.167 101.851 794.716 99.6317C709.322 96.1509 629.393 117.651 544.145 141.039C528.47 145.315 512.728 149.648 496.868 153.653C405.529 177.105 313.094 184.151 222.998 186.506C131.863 188.887 40.8023 186.445 -52.3744 187.686C-72.873 187.964 -93.5477 188.59 -114.165 189.229C-191.176 191.614 -265.289 193.278 -327.168 250.462" stroke="#A2DDFF" stroke-width="1.35" stroke-miterlimit="10"/>
<path d="M1390.12 131.974C1254.37 211.119 1101.98 176.206 953.395 136.574C898.416 121.9 844.057 107.669 789.751 103.566C704.195 97.1019 623.833 113.389 538.131 134.903C522.365 138.834 506.535 142.907 490.617 146.834C399.255 169.393 307.151 179.944 217.228 185.86C126.123 191.851 35.1405 193.255 -57.9921 194.547C-78.5178 194.834 -99.2196 195.277 -119.877 195.501C-197.298 196.326 -271.777 193.123 -335.176 247.225" stroke="#98DAFF" stroke-width="1.43" stroke-miterlimit="10"/>
<path d="M1383.99 125.374C1249.69 209.775 1096.81 182.619 948.168 143.191C893.216 128.604 838.941 113.47 784.778 107.493C699.06 98.0351 618.264 109.124 532.112 128.763C516.251 132.352 500.346 136.192 484.361 140.014C393.019 161.856 301.207 175.745 211.453 185.21C120.382 194.817 29.4733 200.06 -63.6186 201.407C-84.1748 201.708 -104.904 201.965 -125.602 201.772C-203.433 201.034 -278.281 192.967 -343.199 243.988" stroke="#8DD6FF" stroke-width="1.51" stroke-miterlimit="10"/>
<path d="M1377.85 118.778C1245.01 208.436 1091.64 189.039 942.945 149.81C888.02 135.312 833.833 119.272 779.809 111.427C693.931 98.9585 612.698 104.861 526.096 122.627C510.144 125.871 494.158 129.48 478.111 133.195C386.793 154.326 295.269 171.547 205.681 184.564C114.64 197.79 23.8097 206.866 -69.2383 208.267C-89.825 208.578 -110.581 208.652 -131.317 208.04C-209.557 205.736 -284.77 192.804 -351.209 240.744" stroke="#83D2FF" stroke-width="1.59" stroke-miterlimit="10"/>
<path d="M1371.72 112.182C1240.33 207.096 1086.47 195.457 937.718 156.434C882.82 142.024 828.718 125.066 774.835 115.361C688.802 99.8688 607.129 100.603 520.073 116.495C504.03 119.397 487.963 122.776 471.852 126.379C380.554 146.8 289.32 167.363 199.902 183.922C108.895 200.774 18.1391 213.679 -74.8649 215.134C-95.482 215.458 -116.265 215.343 -137.041 214.318C-215.691 210.442 -291.27 192.656 -359.232 237.514" stroke="#78CEFF" stroke-width="1.67" stroke-miterlimit="10"/>
<path d="M1365.59 105.586C1235.66 205.757 1081.3 201.874 932.498 163.054C877.628 148.728 823.617 130.847 769.87 119.296C683.681 100.769 601.571 96.3441 514.062 110.359C497.927 112.919 481.789 116.099 465.607 119.563C374.373 139.456 283.387 163.182 194.137 183.279C103.168 203.765 12.4832 220.492 -80.4767 221.997C-101.121 222.335 -121.934 222.031 -142.748 220.593C-221.804 215.137 -297.756 192.504 -367.234 234.28" stroke="#6ECBFF" stroke-width="1.75" stroke-miterlimit="10"/>
<path d="M1359.46 98.986C1230.98 204.414 1076.13 208.291 927.275 169.671C872.432 155.433 818.512 136.622 764.904 123.223C678.57 101.648 596.01 92.0752 508.047 104.216C491.817 106.431 475.601 109.384 459.354 112.737C368.141 131.92 277.453 158.995 188.366 182.626C97.4338 206.748 6.81995 227.295 -86.0994 228.854C-106.774 229.202 -127.611 228.709 -148.469 226.862C-227.934 219.822 -304.252 192.345 -375.254 231.036" stroke="#64C7FF" stroke-width="1.83" stroke-miterlimit="10"/>
<path d="M1353.32 92.3896C1226.3 203.074 1070.95 214.707 922.048 176.29C867.231 162.141 813.41 142.392 759.931 127.157C673.454 102.521 590.44 87.8163 502.027 98.0827C485.706 99.9567 469.408 102.676 453.101 105.92C361.908 124.39 271.518 154.82 182.593 181.983C91.7018 209.745 1.15568 234.107 -91.7196 235.717C-112.425 236.079 -133.289 235.393 -154.184 233.136C-234.056 224.507 -310.742 192.192 -383.268 227.802" stroke="#59C3FF" stroke-width="1.91" stroke-miterlimit="10"/>
<path d="M1347.19 85.793C1221.63 201.734 1065.78 221.127 916.824 182.913C862.034 168.851 808.315 148.156 754.961 131.09C668.348 103.386 584.874 83.5536 496.007 91.9461C479.595 93.475 463.22 95.9681 446.844 99.1038C355.672 116.863 265.583 150.653 176.817 181.337C85.97 212.742 -4.51184 240.916 -97.3431 242.577C-118.079 242.949 -138.967 242.073 -159.902 239.407C-240.177 229.185 -317.239 192.036 -391.281 224.564" stroke="#4FBFFF" stroke-width="1.99" stroke-miterlimit="10"/>
<path d="M1341.05 79.1973C1216.95 200.395 1060.61 227.545 911.596 189.534C856.834 175.556 803.219 153.914 749.987 135.025C663.246 104.243 579.308 79.2954 489.987 85.8138C473.484 87.0011 457.027 89.2607 440.588 92.2882C349.439 109.334 259.651 146.489 171.038 180.695C80.2379 215.749 -10.183 247.729 -102.974 249.444C-123.74 249.83 -144.655 248.758 -165.631 245.686C-246.312 233.867 -323.743 191.888 -399.309 221.331" stroke="#45BCFF" stroke-width="2.08" stroke-miterlimit="10"/>
<path d="M1334.92 72.5977C1212.28 199.053 1055.44 233.962 906.377 196.15C851.642 182.261 798.139 159.665 745.025 138.952C658.166 105.082 573.75 75.0264 483.976 79.6708C467.381 80.5131 450.843 82.5461 434.343 85.462C343.214 101.797 253.795 142.464 165.274 180.042C74.5888 218.899 -15.8388 254.532 -108.585 256.298C-129.379 256.697 -150.321 255.428 -171.337 251.951C-252.418 238.528 -330.225 191.726 -407.311 218.087" stroke="#3AB8FF" stroke-width="2.16" stroke-miterlimit="10"/>
<path d="M1323.12 66C1201.93 197.712 1044.6 240.377 895.48 202.772C840.772 188.971 787.384 165.417 734.382 142.888C647.415 105.926 562.512 70.7696 472.287 73.54C455.597 74.0406 438.985 75.8402 422.417 78.6512C331.309 94.2759 242.195 138.274 153.829 179.404C63.1879 221.877 -27.1755 261.35 -119.878 263.17C-140.702 263.579 -161.661 262.081 -182.728 258.235C-264.181 243.063 -342.394 191.582 -421 214.862" stroke="#30B4FF" stroke-width="2.24" stroke-miterlimit="10"/>
<path d="M1322.65 59.4053C1202.92 196.374 1045.1 246.796 895.925 209.393C841.244 195.68 787.978 171.162 735.081 146.824C648.012 106.759 562.615 66.5089 471.94 67.4053C455.159 67.5643 438.465 69.1339 421.836 71.8333C330.748 86.7441 241.935 134.078 153.729 178.76C63.1318 224.852 -27.1673 268.161 -119.826 270.031C-140.68 270.454 -161.663 268.77 -182.771 264.508C-264.627 247.77 -343.212 191.428 -423.338 211.623" stroke="#0AB6B6" stroke-width="2.32" stroke-miterlimit="10"/>
<path d="M1316.52 52.8086C1198.24 195.034 1039.92 253.216 890.701 216.013C836.047 202.387 782.941 176.841 730.111 150.754C643.005 107.476 557.053 62.2463 465.921 61.2653C449.048 61.0793 432.273 62.4188 415.58 65.0099C324.512 79.2104 236.001 129.876 147.953 178.11C57.4002 227.822 -32.8345 274.966 -125.452 276.888C-146.337 277.321 -167.347 275.453 -188.496 270.775C-270.754 252.472 -349.712 191.269 -431.361 208.382" stroke="#0AB6B6" stroke-width="2.4" stroke-miterlimit="10"/>
<path d="M1310.39 46.209C1193.57 193.691 1034.75 259.629 885.478 222.629C740.417 186.675 606.811 59.7059 459.905 55.1257C234.403 48.0999 28.6277 330.611 -194.21 277.047C-276.872 257.177 -356.205 191.116 -439.371 205.148" stroke="#0AB6B6" stroke-width="2.48" stroke-miterlimit="10"/>
</g>
<defs>
<clipPath id="clip0_191_3280">
<rect width="1890.92" height="338.268" fill="white" transform="translate(-439.441 -0.0595703)"/>
</clipPath>
</defs>
</svg>
