<svg width="216" height="273" viewBox="0 0 216 273" fill="none" xmlns="http://www.w3.org/2000/svg">
<path d="M88.3122 59.4765C82.593 74.0034 83.699 91.055 91.2464 104.722C95.104 111.705 100.608 117.735 107.114 122.349C96.3096 116.965 87.0968 108.345 81.2558 97.7688C75.7978 87.8865 73.3553 76.4206 74.0344 65.1593C75.151 60.3893 76.6629 55.7156 78.5787 51.2053C79.9504 47.9747 82.3739 44.3097 85.8666 44.6455C88.7894 44.9255 90.6843 48.1233 90.6982 51.0606C90.7124 53.9955 89.3877 56.7437 88.3122 59.4765Z" stroke="black" stroke-opacity="0.025" stroke-width="2.13715"/>
<path d="M178.357 197.89C181.854 167.761 169.273 139.396 144.541 120.473C133.12 111.736 122.335 106.031 103.424 85.3453C101.085 82.7858 96.9019 84.7593 96.0545 88.1204C94.3084 95.0465 98.7004 103.451 102.253 107.826L116.331 125.157C118.213 127.474 115.855 130.784 113.041 129.785C98.6923 124.689 86.2188 114.299 78.8479 100.952C69.9651 84.8686 68.6638 64.7992 75.3947 47.7017C76.6606 44.4868 78.2195 41.2524 78.2029 37.796C78.1862 34.342 75.9562 30.5787 72.5163 30.2492C68.4055 29.8545 65.5535 34.1666 63.9391 37.9675C54.168 60.9725 53.2048 87.5929 61.2883 111.243C69.3716 134.895 85.4881 153.114 107.296 165.326C118.735 171.731 132.45 178.264 142.51 186.67C156.808 198.621 163.849 218.648 160.178 236.917C160.178 236.917 175.699 220.794 178.357 197.89Z" stroke="black" stroke-opacity="0.025" stroke-width="2.13715"/>
<path d="M109.329 84.4081C109.12 84.9398 108.926 85.4757 108.74 86.0148C107.835 85.0541 106.91 84.0604 105.963 83.0239C104.52 81.4453 102.569 80.6438 100.451 80.749C100.813 79.7709 101.196 78.8022 101.603 77.8436C102.692 75.2798 104.615 72.3715 107.387 72.6384C109.708 72.8589 111.212 75.3973 111.223 77.7282C111.234 80.0592 110.182 82.2408 109.329 84.4081Z" stroke="black" stroke-opacity="0.025" stroke-width="2.13715"/>
<path d="M100.072 71.2299C98.7594 74.5642 97.8511 78.0455 97.3353 81.5873C95.1201 82.6974 93.3456 84.7957 92.7192 87.2799C90.6938 95.3141 95.7829 106.615 100.215 112.072L111.125 124.204C103.964 119.465 97.9033 113.055 93.7504 105.535C88.8606 96.6816 86.6726 86.4107 87.2809 76.3223C88.2812 72.0479 89.6359 67.8602 91.3523 63.8192C92.5808 60.9276 94.7521 57.643 97.8812 57.9428C100.499 58.1962 102.197 61.0593 102.209 63.6899C102.222 66.3205 101.035 68.7832 100.072 71.2299Z" stroke="black" stroke-opacity="0.025" stroke-width="2.13715"/>
<path d="M134.981 61.6047C145.26 73.3556 149.964 89.7828 147.46 105.194C146.182 113.068 143.031 120.6 138.46 127.136C146.817 118.427 152.588 107.208 154.526 95.281C156.336 84.1376 154.771 72.5197 150.339 62.145C147.681 58.03 144.682 54.1394 141.359 50.5382C138.98 47.9579 135.463 45.3239 132.288 46.8166C129.629 48.0653 128.923 51.7143 129.9 54.4842C130.874 57.253 133.048 59.394 134.981 61.6047Z" stroke="black" stroke-opacity="0.025" stroke-width="2.13715"/>
<path d="M96.8304 222.262C83.386 195.074 85.6756 164.128 102.587 137.979C110.398 125.905 118.63 116.9 129.467 91.0525C130.806 87.8551 135.41 88.3039 137.341 91.1827C141.319 97.1154 140.014 106.509 138.142 111.826L130.727 132.885C129.734 135.701 133.07 138.023 135.384 136.135C147.177 126.502 155.421 112.517 157.865 97.4677C160.81 79.3314 155.273 59.9976 143.175 46.1671C140.901 43.5661 138.343 41.0462 137.195 37.7859C136.046 34.5287 136.879 30.2339 140.008 28.7642C143.745 27.0078 147.883 30.1071 150.682 33.1427C167.633 51.5108 177.508 76.2503 177.864 101.241C178.221 126.234 169.184 148.817 152.767 167.662C144.154 177.546 133.441 188.318 126.802 199.622C117.366 215.69 117.483 236.919 127.095 252.883C127.095 252.883 107.049 242.932 96.8304 222.262Z" stroke="black" stroke-opacity="0.025" stroke-width="2.13715"/>
<path d="M123.592 92.1589C123.968 92.5891 124.331 93.0287 124.688 93.4734C125.216 92.264 125.752 91.0169 126.295 89.7217C127.121 87.7495 128.687 86.3382 130.717 85.7237C130.047 84.9243 129.362 84.1405 128.655 83.3756C126.766 81.3284 123.974 79.2384 121.454 80.4236C119.344 81.4128 118.784 84.3091 119.558 86.5078C120.332 88.7065 122.059 90.4057 123.592 92.1589Z" stroke="black" stroke-opacity="0.025" stroke-width="2.13715"/>
<path d="M127.867 76.6329C130.228 79.3294 132.255 82.3015 133.934 85.4625C136.394 85.761 138.772 87.1391 140.198 89.267C144.811 96.1498 143.828 108.503 141.493 115.136L135.308 130.233C140.454 123.359 144.001 115.282 145.377 106.802C146.998 96.8195 145.599 86.4115 141.626 77.1184C139.245 73.4303 136.56 69.9435 133.582 66.7169C131.451 64.4084 128.3 62.0475 125.455 63.3838C123.075 64.5043 122.441 67.7723 123.316 70.2529C124.189 72.7346 126.137 74.6531 127.867 76.6329Z" stroke="black" stroke-opacity="0.025" stroke-width="2.13715"/>
</svg>
